<?xml version="1.0" encoding="UTF-8" standalone="no"?>
<!DOCTYPE svg PUBLIC "-//W3C//DTD SVG 1.1//EN" "http://www.w3.org/Graphics/SVG/1.1/DTD/svg11.dtd">
<svg viewBox="0 0 600 156" height="156.0pt" width="600.0pt" xmlns="http://www.w3.org/2000/svg" version="1.1">
<path d="M 0.00 0.00 L 600.00 0.00 L 600.00 156.00 L 0.00 156.00 L 0.00 0.00 Z" fill="#ffffff" />
<path d="M 165.14 6.55 C 164.40 16.58 163.92 26.64 163.42 36.69 C 161.29 35.45 159.17 34.21 157.07 32.93 C 149.15 52.37 139.23 71.26 130.36 90.37 C 123.81 104.44 115.58 117.54 104.57 128.56 C 98.43 134.91 91.26 140.02 82.78 142.71 C 71.16 146.64 58.86 144.11 48.10 138.90 C 37.47 133.52 29.18 123.56 23.96 113.01 C 19.32 103.78 17.57 93.99 15.88 83.91 C 15.27 80.29 15.15 76.64 15.76 73.02 C 17.37 64.20 20.16 55.86 25.81 48.77 C 35.18 37.07 48.28 28.09 63.10 25.08 C 67.78 24.09 74.41 22.71 78.73 25.28 C 84.01 28.78 86.40 36.70 88.63 42.33 C 83.21 39.01 77.47 35.77 71.53 33.47 C 64.14 30.71 55.24 30.93 48.64 35.61 C 43.11 39.24 39.68 44.89 38.11 51.24 C 34.88 63.52 34.32 77.36 38.43 89.50 C 41.89 100.38 47.33 111.40 55.22 119.76 C 59.68 124.37 66.38 128.64 72.99 128.49 C 80.87 128.06 88.63 124.74 94.44 119.39 C 106.77 108.08 114.28 94.37 121.51 79.53 C 130.12 62.24 138.37 44.70 147.54 27.70 C 145.39 26.50 143.26 25.28 141.13 24.05 C 149.18 18.29 157.28 12.56 165.14 6.55 Z" fill="#f39123" />
<path d="M 235.34 27.30 C 235.34 30.09 235.35 32.88 235.36 35.66 C 227.79 32.99 220.20 31.52 212.40 34.38 C 207.76 36.14 204.71 40.11 203.84 44.96 C 202.83 50.48 203.52 57.33 207.23 61.79 C 210.83 66.08 216.65 67.32 222.00 67.23 C 226.72 67.25 230.95 65.83 235.37 64.40 C 235.35 67.20 235.33 70.00 235.33 72.80 C 229.93 74.22 224.62 75.43 218.99 75.10 C 213.27 74.83 206.62 73.66 202.06 69.95 C 197.45 66.35 195.07 60.70 194.23 55.04 C 193.33 48.76 193.78 41.60 196.86 35.92 C 199.18 31.56 203.23 28.30 207.93 26.82 C 216.99 23.95 226.33 24.60 235.34 27.30 Z" fill="#f39123" />
<path d="M 243.81 25.33 C 246.91 25.34 250.01 25.34 253.12 25.33 C 253.11 32.12 253.14 38.90 253.06 45.69 C 261.22 45.71 269.38 45.69 277.53 45.71 C 277.48 38.91 277.51 32.12 277.47 25.33 C 280.57 25.35 283.67 25.35 286.77 25.34 C 286.68 41.79 286.69 58.25 286.76 74.70 C 283.66 74.69 280.57 74.69 277.47 74.71 C 277.52 67.68 277.48 60.66 277.54 53.64 C 269.38 53.64 261.22 53.63 253.06 53.65 C 253.15 60.67 253.11 67.69 253.12 74.70 C 250.02 74.70 246.91 74.70 243.81 74.71 C 243.82 58.25 243.83 41.79 243.81 25.33 Z" fill="#f39123" />
<path d="M 296.79 25.33 C 299.89 25.34 302.99 25.34 306.10 25.34 C 306.09 41.79 306.09 58.25 306.10 74.70 C 302.99 74.70 299.89 74.70 296.79 74.71 C 296.81 58.25 296.81 41.79 296.79 25.33 Z" fill="#f39123" />
<path d="M 316.61 25.52 C 319.61 25.16 322.71 25.32 325.73 25.34 C 325.60 39.17 325.72 52.99 325.66 66.82 C 332.24 66.82 338.82 66.83 345.40 66.82 C 345.39 69.45 345.39 72.08 345.40 74.71 C 335.74 74.69 326.08 74.70 316.42 74.70 C 316.63 58.35 316.20 41.85 316.61 25.52 Z" fill="#f39123" />
<path d="M 353.88 25.33 C 360.93 25.40 367.99 25.21 375.04 25.38 C 381.36 25.66 387.83 26.90 392.38 31.66 C 397.14 36.57 398.37 44.42 398.02 50.98 C 397.64 57.61 395.81 65.08 390.51 69.54 C 386.07 73.50 379.80 74.58 374.04 74.70 C 367.32 74.77 360.60 74.65 353.88 74.71 C 353.89 58.25 353.89 41.79 353.88 25.33 Z" fill="#f39123" />
<path d="M 405.68 25.33 C 413.13 25.38 420.58 25.27 428.02 25.33 C 432.06 25.41 437.02 25.99 440.06 28.93 C 444.20 33.43 444.57 41.07 441.01 46.03 C 438.60 49.55 435.18 51.31 431.72 53.59 C 437.04 60.56 442.06 67.75 447.39 74.72 C 443.46 74.70 439.53 74.69 435.61 74.68 C 432.95 70.91 430.32 67.12 427.69 63.33 C 424.56 58.58 420.75 55.25 420.29 49.20 C 424.70 47.86 430.39 47.22 432.76 42.68 C 434.58 39.67 434.10 34.72 430.22 33.72 C 425.29 32.87 420.05 33.46 415.05 33.36 C 415.16 47.13 415.06 60.90 415.11 74.66 C 411.96 74.62 408.81 74.61 405.66 74.61 C 405.74 58.19 405.70 41.76 405.68 25.33 Z" fill="#f39123" />
<path d="M 485.52 25.34 C 485.51 27.95 485.50 30.55 485.49 33.16 C 477.19 33.16 468.90 33.16 460.60 33.17 C 460.61 37.33 460.61 41.48 460.59 45.64 C 468.48 45.64 476.38 45.64 484.27 45.64 C 484.27 48.37 484.26 51.09 484.27 53.81 C 476.36 53.80 468.45 53.82 460.54 53.80 C 460.56 58.14 460.56 62.48 460.53 66.82 C 469.04 66.83 477.54 66.82 486.05 66.83 C 486.04 69.45 486.04 72.07 486.05 74.69 C 474.53 74.71 463.00 74.70 451.48 74.69 C 451.54 58.24 451.54 41.79 451.49 25.34 C 462.83 25.33 474.18 25.33 485.52 25.34 Z" fill="#f39123" />
<path d="M 529.40 27.32 C 529.39 30.12 529.40 32.91 529.41 35.71 C 522.41 33.48 515.53 32.02 508.16 33.33 C 505.25 33.96 502.23 35.20 501.34 38.35 C 500.63 40.93 501.43 44.72 504.48 45.33 C 511.49 46.50 519.99 44.22 526.34 48.63 C 531.04 52.04 531.23 57.66 530.67 62.95 C 530.14 68.08 526.23 72.01 521.45 73.51 C 512.37 76.40 502.49 75.04 493.44 72.75 C 493.44 69.94 493.43 67.14 493.42 64.34 C 500.13 66.48 506.97 67.89 514.05 66.95 C 517.00 66.49 520.13 65.28 521.27 62.26 C 522.27 59.47 521.74 55.60 518.52 54.60 C 512.22 53.16 503.27 55.36 497.22 51.82 C 491.97 48.74 491.24 41.62 492.29 36.21 C 493.23 31.32 497.11 27.94 501.75 26.57 C 511.04 23.81 520.19 24.90 529.40 27.32 Z" fill="#f39123" />
<path d="M 570.16 27.27 C 570.16 30.08 570.17 32.88 570.19 35.68 C 563.10 33.44 555.91 31.93 548.48 33.44 C 545.74 34.08 543.24 35.43 542.18 38.17 C 541.02 41.23 542.67 45.18 546.17 45.50 C 552.35 46.17 558.74 44.85 564.82 47.31 C 567.89 48.49 569.94 51.06 571.09 54.07 C 574.31 61.25 570.26 71.22 562.51 73.43 C 553.40 76.41 543.60 75.05 534.48 72.84 C 534.47 70.04 534.44 67.25 534.40 64.45 C 541.36 66.51 548.52 68.06 555.80 66.80 C 559.32 66.08 562.59 63.82 562.76 59.94 C 562.96 56.97 560.91 54.61 557.98 54.30 C 551.47 53.46 542.55 55.30 536.95 51.07 C 530.12 45.00 531.37 31.02 540.34 27.43 C 549.68 23.55 560.61 24.78 570.16 27.27 Z" fill="#f39123" />
<path d="M 118.37 26.82 C 122.65 36.81 126.95 46.81 130.82 56.96 C 128.51 61.68 126.15 66.38 123.69 71.03 C 121.02 65.62 118.78 60.01 116.28 54.52 C 115.38 65.69 115.90 77.20 114.23 88.28 C 113.44 93.51 110.45 97.31 107.40 101.43 C 104.48 105.43 101.26 109.17 98.12 112.98 C 98.77 102.99 99.54 93.00 99.96 83.00 C 100.56 68.98 101.80 55.00 102.49 40.99 C 102.61 39.16 102.72 37.19 103.23 35.42 C 108.01 32.15 113.55 30.12 118.37 26.82 Z" fill="#5b5c5e" />
<path d="M 363.11 33.31 C 369.16 33.49 377.21 32.21 382.57 35.39 C 387.77 38.48 389.00 44.37 388.81 50.01 C 388.61 55.87 386.80 62.33 381.15 65.15 C 375.98 67.75 368.78 66.63 363.12 66.79 C 363.20 55.63 363.21 44.47 363.11 33.31 Z" fill="#ffffff" />
<path d="M 140.14 73.59 C 150.25 94.53 160.52 115.36 169.49 136.83 C 164.99 136.40 160.48 136.09 156.01 135.50 C 153.00 135.07 150.20 134.26 148.14 131.88 C 144.24 127.45 142.50 120.99 140.41 115.57 C 138.14 109.75 136.11 103.84 133.97 97.98 C 133.21 95.72 132.29 93.27 132.24 90.87 C 132.60 88.73 133.83 86.68 134.74 84.73 C 136.64 81.07 138.23 77.25 140.14 73.59 Z" fill="#5b5c5e" />
<path d="M 216.39 90.75 C 223.41 104.67 229.25 119.20 236.10 133.20 C 234.78 133.22 233.47 133.23 232.15 133.24 C 230.16 128.48 228.02 123.79 225.93 119.07 C 219.69 119.07 213.46 119.06 207.22 119.08 C 207.43 118.15 207.65 117.23 207.86 116.30 C 213.51 116.31 219.17 116.29 224.82 116.33 C 221.37 108.72 217.94 101.09 214.74 93.37 C 209.05 106.63 203.12 119.78 197.40 133.03 C 196.17 133.20 194.94 133.30 193.69 133.35 C 200.21 119.84 206.05 105.95 212.46 92.40 C 213.08 90.72 214.91 91.15 216.39 90.75 Z" fill="#5b5c5e" />
<path d="M 299.09 91.95 C 300.93 92.31 300.99 93.61 301.99 94.98 C 295.55 93.82 289.59 92.60 283.04 94.06 C 278.55 95.08 274.04 97.89 272.22 102.29 C 269.79 107.81 269.89 114.53 271.75 120.20 C 273.17 124.49 276.35 127.97 280.70 129.35 C 286.47 131.35 292.15 130.74 298.00 129.52 C 298.07 124.31 298.11 119.09 297.96 113.88 C 299.05 113.87 300.13 113.87 301.22 113.86 C 301.20 119.80 301.21 125.74 301.24 131.67 C 292.36 134.31 281.77 134.74 274.01 128.93 C 267.39 123.62 266.84 114.82 267.62 106.98 C 268.12 101.00 271.52 95.53 277.08 93.06 C 283.86 90.11 292.02 90.08 299.09 91.95 Z" fill="#5b5c5e" />
<path d="M 337.32 91.07 C 346.59 91.06 355.86 91.06 365.12 91.07 C 365.13 91.91 365.13 92.76 365.14 93.60 C 356.88 93.61 348.61 93.60 340.35 93.62 C 340.42 99.21 340.42 104.81 340.35 110.41 C 348.26 110.40 356.17 110.40 364.08 110.42 C 364.08 111.36 364.08 112.31 364.08 113.26 C 356.17 113.27 348.26 113.27 340.35 113.27 C 340.42 118.96 340.42 124.66 340.35 130.35 C 348.76 130.36 357.18 130.35 365.59 130.37 C 365.58 131.32 365.56 132.28 365.54 133.23 C 356.13 133.22 346.72 133.22 337.31 133.23 C 337.37 119.18 337.35 105.12 337.32 91.07 Z" fill="#5b5c5e" />
<path d="M 401.19 90.96 C 402.49 90.94 403.80 90.93 405.10 90.92 C 414.60 103.19 423.99 115.55 433.36 127.92 C 433.18 115.60 433.31 103.28 433.27 90.96 C 434.27 90.95 435.27 90.94 436.26 90.92 C 436.21 105.27 436.38 119.63 436.17 133.97 C 431.72 132.10 430.10 128.37 427.21 124.80 C 419.42 114.72 411.79 104.52 403.89 94.53 C 404.05 107.43 403.81 120.33 404.03 133.22 C 403.07 133.22 402.11 133.23 401.15 133.23 C 401.23 119.14 401.16 105.05 401.19 90.96 Z" fill="#5b5c5e" />
<path d="M 489.00 90.95 C 493.65 90.42 498.56 90.68 503.08 91.97 C 504.90 92.35 504.99 93.67 506.00 95.04 C 498.41 93.55 489.91 92.00 482.66 95.63 C 476.79 98.55 474.24 104.67 474.27 110.98 C 474.04 117.74 476.28 125.05 482.63 128.39 C 490.50 132.06 497.85 130.49 506.00 129.12 C 504.97 130.67 504.75 132.01 502.76 132.38 C 498.01 133.62 492.83 133.85 487.97 133.14 C 483.10 132.43 477.93 130.11 475.03 125.98 C 471.68 121.02 470.88 114.82 471.28 108.97 C 471.57 104.47 473.11 99.61 476.31 96.32 C 479.59 92.94 484.44 91.51 489.00 90.95 Z" fill="#5b5c5e" />
<path d="M 537.37 90.69 C 538.64 90.84 539.91 91.00 541.17 91.17 C 546.06 99.07 550.35 107.38 554.91 115.48 C 559.21 107.93 563.46 100.31 567.91 92.85 C 568.97 90.75 570.86 91.16 572.88 90.49 C 568.99 96.79 565.38 103.25 561.65 109.64 C 559.97 112.58 557.79 115.59 556.82 118.85 C 556.25 123.59 556.68 128.47 556.64 133.24 C 555.57 133.24 554.49 133.24 553.41 133.24 C 553.04 127.35 554.93 119.61 551.33 114.68 C 546.60 106.73 541.93 98.74 537.37 90.69 Z" fill="#5b5c5e" /></svg>